<mxfile host="app.diagrams.net" modified="2023-12-20T17:00:54.650Z" agent="Mozilla/5.0 (Windows NT 10.0; Win64; x64) AppleWebKit/537.36 (KHTML, like Gecko) Chrome/120.0.0.0 Safari/537.36" etag="vQC_GvOAIpvLnmzhvMGv" version="22.1.11" type="device">
  <diagram name="Side-1" id="iAj8GJXli-6HWio7hjrs">
    <mxGraphModel dx="794" dy="412" grid="1" gridSize="10" guides="1" tooltips="1" connect="0" arrows="1" fold="1" page="1" pageScale="1" pageWidth="827" pageHeight="1169" math="0" shadow="0">
      <root>
        <mxCell id="0" />
        <mxCell id="1" parent="0" />
        <mxCell id="SNHWbEER7JOS9_rvcUcZ-5" value=":User" style="rounded=0;whiteSpace=wrap;html=1;" vertex="1" parent="1">
          <mxGeometry y="20" width="80" height="40" as="geometry" />
        </mxCell>
        <mxCell id="SNHWbEER7JOS9_rvcUcZ-7" value="Azure:Server" style="rounded=0;whiteSpace=wrap;html=1;" vertex="1" parent="1">
          <mxGeometry x="160" y="20" width="80" height="40" as="geometry" />
        </mxCell>
        <mxCell id="SNHWbEER7JOS9_rvcUcZ-8" value=":Chirp" style="rounded=0;whiteSpace=wrap;html=1;" vertex="1" parent="1">
          <mxGeometry x="320" y="20" width="80" height="40" as="geometry" />
        </mxCell>
        <mxCell id="SNHWbEER7JOS9_rvcUcZ-9" value="Azure:OAuth" style="rounded=0;whiteSpace=wrap;html=1;" vertex="1" parent="1">
          <mxGeometry x="480" y="20" width="80" height="40" as="geometry" />
        </mxCell>
        <mxCell id="SNHWbEER7JOS9_rvcUcZ-10" value="Azure:SQL server" style="rounded=0;whiteSpace=wrap;html=1;" vertex="1" parent="1">
          <mxGeometry x="640" y="20" width="80" height="40" as="geometry" />
        </mxCell>
        <mxCell id="SNHWbEER7JOS9_rvcUcZ-11" value="" style="endArrow=none;dashed=1;html=1;rounded=0;entryX=0.5;entryY=1;entryDx=0;entryDy=0;dashPattern=12 12;" edge="1" parent="1" target="SNHWbEER7JOS9_rvcUcZ-5">
          <mxGeometry width="50" height="50" relative="1" as="geometry">
            <mxPoint x="40" y="480" as="sourcePoint" />
            <mxPoint x="380" y="180" as="targetPoint" />
          </mxGeometry>
        </mxCell>
        <mxCell id="SNHWbEER7JOS9_rvcUcZ-12" value="" style="endArrow=none;dashed=1;html=1;rounded=0;entryX=0.5;entryY=1;entryDx=0;entryDy=0;dashPattern=12 12;" edge="1" parent="1" source="SNHWbEER7JOS9_rvcUcZ-42">
          <mxGeometry width="50" height="50" relative="1" as="geometry">
            <mxPoint x="679.5" y="400" as="sourcePoint" />
            <mxPoint x="679.5" y="60" as="targetPoint" />
          </mxGeometry>
        </mxCell>
        <mxCell id="SNHWbEER7JOS9_rvcUcZ-13" value="" style="endArrow=none;dashed=1;html=1;rounded=0;entryX=0.5;entryY=1;entryDx=0;entryDy=0;dashPattern=12 12;" edge="1" parent="1">
          <mxGeometry width="50" height="50" relative="1" as="geometry">
            <mxPoint x="359.5" y="120" as="sourcePoint" />
            <mxPoint x="359.5" y="60" as="targetPoint" />
            <Array as="points" />
          </mxGeometry>
        </mxCell>
        <mxCell id="SNHWbEER7JOS9_rvcUcZ-14" value="" style="endArrow=none;dashed=1;html=1;rounded=0;entryX=0.5;entryY=1;entryDx=0;entryDy=0;dashPattern=12 12;" edge="1" parent="1">
          <mxGeometry width="50" height="50" relative="1" as="geometry">
            <mxPoint x="519.9166666666667" y="160" as="sourcePoint" />
            <mxPoint x="519.5" y="60" as="targetPoint" />
          </mxGeometry>
        </mxCell>
        <mxCell id="SNHWbEER7JOS9_rvcUcZ-15" value="" style="endArrow=none;dashed=1;html=1;rounded=0;entryX=0.5;entryY=1;entryDx=0;entryDy=0;dashPattern=12 12;" edge="1" parent="1">
          <mxGeometry width="50" height="50" relative="1" as="geometry">
            <mxPoint x="200" y="480" as="sourcePoint" />
            <mxPoint x="199.5" y="60" as="targetPoint" />
          </mxGeometry>
        </mxCell>
        <mxCell id="SNHWbEER7JOS9_rvcUcZ-16" value="" style="endArrow=classic;html=1;rounded=0;entryX=0;entryY=0;entryDx=0;entryDy=0;" edge="1" parent="1" target="SNHWbEER7JOS9_rvcUcZ-32">
          <mxGeometry width="50" height="50" relative="1" as="geometry">
            <mxPoint x="40" y="80" as="sourcePoint" />
            <mxPoint x="200" y="80" as="targetPoint" />
          </mxGeometry>
        </mxCell>
        <mxCell id="SNHWbEER7JOS9_rvcUcZ-17" value="HTTP Get Request" style="edgeLabel;html=1;align=center;verticalAlign=middle;resizable=0;points=[];" vertex="1" connectable="0" parent="SNHWbEER7JOS9_rvcUcZ-16">
          <mxGeometry x="-0.01" y="2" relative="1" as="geometry">
            <mxPoint y="-6" as="offset" />
          </mxGeometry>
        </mxCell>
        <mxCell id="SNHWbEER7JOS9_rvcUcZ-18" value="" style="endArrow=classic;html=1;rounded=0;entryX=0;entryY=0;entryDx=0;entryDy=0;" edge="1" parent="1" target="SNHWbEER7JOS9_rvcUcZ-33">
          <mxGeometry width="50" height="50" relative="1" as="geometry">
            <mxPoint x="370" y="160" as="sourcePoint" />
            <mxPoint x="360" y="120" as="targetPoint" />
          </mxGeometry>
        </mxCell>
        <mxCell id="SNHWbEER7JOS9_rvcUcZ-19" value="IsAuthenticated()" style="edgeLabel;html=1;align=center;verticalAlign=middle;resizable=0;points=[];" vertex="1" connectable="0" parent="SNHWbEER7JOS9_rvcUcZ-18">
          <mxGeometry x="-0.0349" y="-1" relative="1" as="geometry">
            <mxPoint y="-9" as="offset" />
          </mxGeometry>
        </mxCell>
        <mxCell id="SNHWbEER7JOS9_rvcUcZ-20" value="" style="endArrow=classic;html=1;rounded=0;strokeColor=default;dashed=1;entryX=0.967;entryY=0.283;entryDx=0;entryDy=0;entryPerimeter=0;exitX=0;exitY=1;exitDx=0;exitDy=0;" edge="1" parent="1" source="SNHWbEER7JOS9_rvcUcZ-33" target="SNHWbEER7JOS9_rvcUcZ-35">
          <mxGeometry width="50" height="50" relative="1" as="geometry">
            <mxPoint x="360" y="160" as="sourcePoint" />
            <mxPoint x="210" y="160" as="targetPoint" />
          </mxGeometry>
        </mxCell>
        <mxCell id="SNHWbEER7JOS9_rvcUcZ-21" value="Response" style="edgeLabel;html=1;align=center;verticalAlign=middle;resizable=0;points=[];" vertex="1" connectable="0" parent="SNHWbEER7JOS9_rvcUcZ-20">
          <mxGeometry x="0.0167" y="-2" relative="1" as="geometry">
            <mxPoint y="-6" as="offset" />
          </mxGeometry>
        </mxCell>
        <mxCell id="SNHWbEER7JOS9_rvcUcZ-22" value="" style="endArrow=classic;html=1;rounded=0;exitX=1;exitY=0.109;exitDx=0;exitDy=0;exitPerimeter=0;entryX=0;entryY=0;entryDx=0;entryDy=0;" edge="1" parent="1" source="SNHWbEER7JOS9_rvcUcZ-32" target="SNHWbEER7JOS9_rvcUcZ-35">
          <mxGeometry width="50" height="50" relative="1" as="geometry">
            <mxPoint x="200" y="200" as="sourcePoint" />
            <mxPoint x="520" y="200" as="targetPoint" />
          </mxGeometry>
        </mxCell>
        <mxCell id="SNHWbEER7JOS9_rvcUcZ-48" value="Get Page" style="edgeLabel;html=1;align=center;verticalAlign=middle;resizable=0;points=[];" vertex="1" connectable="0" parent="SNHWbEER7JOS9_rvcUcZ-22">
          <mxGeometry x="0.0189" y="2" relative="1" as="geometry">
            <mxPoint y="-6" as="offset" />
          </mxGeometry>
        </mxCell>
        <mxCell id="SNHWbEER7JOS9_rvcUcZ-28" value="" style="endArrow=classic;html=1;rounded=0;strokeColor=default;dashed=1;entryX=0.933;entryY=0.885;entryDx=0;entryDy=0;entryPerimeter=0;exitX=0;exitY=1;exitDx=0;exitDy=0;" edge="1" parent="1" source="SNHWbEER7JOS9_rvcUcZ-35" target="SNHWbEER7JOS9_rvcUcZ-32">
          <mxGeometry width="50" height="50" relative="1" as="geometry">
            <mxPoint x="520" y="320" as="sourcePoint" />
            <mxPoint x="200" y="320" as="targetPoint" />
          </mxGeometry>
        </mxCell>
        <mxCell id="SNHWbEER7JOS9_rvcUcZ-29" value="Return page" style="edgeLabel;html=1;align=center;verticalAlign=middle;resizable=0;points=[];" vertex="1" connectable="0" parent="SNHWbEER7JOS9_rvcUcZ-28">
          <mxGeometry x="0.0167" y="-2" relative="1" as="geometry">
            <mxPoint y="-6" as="offset" />
          </mxGeometry>
        </mxCell>
        <mxCell id="SNHWbEER7JOS9_rvcUcZ-30" value="" style="endArrow=classic;html=1;rounded=0;strokeColor=default;dashed=1;exitX=0;exitY=1;exitDx=0;exitDy=0;" edge="1" parent="1" source="SNHWbEER7JOS9_rvcUcZ-32">
          <mxGeometry width="50" height="50" relative="1" as="geometry">
            <mxPoint x="200" y="360" as="sourcePoint" />
            <mxPoint x="40" y="440" as="targetPoint" />
          </mxGeometry>
        </mxCell>
        <mxCell id="SNHWbEER7JOS9_rvcUcZ-31" value="Return PublicTimeline" style="edgeLabel;html=1;align=center;verticalAlign=middle;resizable=0;points=[];" vertex="1" connectable="0" parent="SNHWbEER7JOS9_rvcUcZ-30">
          <mxGeometry x="0.0167" y="-2" relative="1" as="geometry">
            <mxPoint y="-6" as="offset" />
          </mxGeometry>
        </mxCell>
        <mxCell id="SNHWbEER7JOS9_rvcUcZ-32" value="" style="rounded=0;whiteSpace=wrap;html=1;" vertex="1" parent="1">
          <mxGeometry x="190" y="80" width="20" height="360" as="geometry" />
        </mxCell>
        <mxCell id="SNHWbEER7JOS9_rvcUcZ-34" value="" style="endArrow=none;dashed=1;html=1;rounded=0;entryX=0.5;entryY=1;entryDx=0;entryDy=0;dashPattern=12 12;" edge="1" parent="1">
          <mxGeometry width="50" height="50" relative="1" as="geometry">
            <mxPoint x="520" y="480" as="sourcePoint" />
            <mxPoint x="520" y="200" as="targetPoint" />
          </mxGeometry>
        </mxCell>
        <mxCell id="SNHWbEER7JOS9_rvcUcZ-33" value="" style="rounded=0;whiteSpace=wrap;html=1;" vertex="1" parent="1">
          <mxGeometry x="510" y="160" width="20" height="40" as="geometry" />
        </mxCell>
        <mxCell id="SNHWbEER7JOS9_rvcUcZ-37" value="" style="endArrow=none;dashed=1;html=1;rounded=0;entryX=0.5;entryY=1;entryDx=0;entryDy=0;dashPattern=12 12;" edge="1" parent="1" target="SNHWbEER7JOS9_rvcUcZ-36">
          <mxGeometry width="50" height="50" relative="1" as="geometry">
            <mxPoint x="680" y="480" as="sourcePoint" />
            <mxPoint x="679.5" y="60" as="targetPoint" />
          </mxGeometry>
        </mxCell>
        <mxCell id="SNHWbEER7JOS9_rvcUcZ-36" value="" style="rounded=0;whiteSpace=wrap;html=1;" vertex="1" parent="1">
          <mxGeometry x="670" y="320" width="20" height="40" as="geometry" />
        </mxCell>
        <mxCell id="SNHWbEER7JOS9_rvcUcZ-41" value="" style="endArrow=none;dashed=1;html=1;rounded=0;entryX=0.5;entryY=1;entryDx=0;entryDy=0;dashPattern=12 12;" edge="1" parent="1" target="SNHWbEER7JOS9_rvcUcZ-35">
          <mxGeometry width="50" height="50" relative="1" as="geometry">
            <mxPoint x="360" y="480" as="sourcePoint" />
            <mxPoint x="460" y="60" as="targetPoint" />
          </mxGeometry>
        </mxCell>
        <mxCell id="SNHWbEER7JOS9_rvcUcZ-35" value="" style="rounded=0;whiteSpace=wrap;html=1;" vertex="1" parent="1">
          <mxGeometry x="350" y="120" width="20" height="280" as="geometry" />
        </mxCell>
        <mxCell id="SNHWbEER7JOS9_rvcUcZ-24" value="" style="endArrow=classic;html=1;rounded=0;entryX=0;entryY=0;entryDx=0;entryDy=0;exitX=1.067;exitY=0.712;exitDx=0;exitDy=0;exitPerimeter=0;" edge="1" parent="1">
          <mxGeometry width="50" height="50" relative="1" as="geometry">
            <mxPoint x="369.99999999999994" y="320" as="sourcePoint" />
            <mxPoint x="668.66" y="320.64" as="targetPoint" />
          </mxGeometry>
        </mxCell>
        <mxCell id="SNHWbEER7JOS9_rvcUcZ-25" value="GetAllCheepsAsync()" style="edgeLabel;html=1;align=center;verticalAlign=middle;resizable=0;points=[];" vertex="1" connectable="0" parent="SNHWbEER7JOS9_rvcUcZ-24">
          <mxGeometry x="0.0125" relative="1" as="geometry">
            <mxPoint y="-8" as="offset" />
          </mxGeometry>
        </mxCell>
        <mxCell id="SNHWbEER7JOS9_rvcUcZ-26" value="" style="endArrow=classic;html=1;rounded=0;strokeColor=default;dashed=1;entryX=0.933;entryY=0.857;entryDx=0;entryDy=0;entryPerimeter=0;exitX=0;exitY=1;exitDx=0;exitDy=0;" edge="1" parent="1" source="SNHWbEER7JOS9_rvcUcZ-36" target="SNHWbEER7JOS9_rvcUcZ-35">
          <mxGeometry width="50" height="50" relative="1" as="geometry">
            <mxPoint x="680" y="280" as="sourcePoint" />
            <mxPoint x="520" y="280" as="targetPoint" />
          </mxGeometry>
        </mxCell>
        <mxCell id="SNHWbEER7JOS9_rvcUcZ-27" value="Return list" style="edgeLabel;html=1;align=center;verticalAlign=middle;resizable=0;points=[];" vertex="1" connectable="0" parent="SNHWbEER7JOS9_rvcUcZ-26">
          <mxGeometry x="0.0167" y="-2" relative="1" as="geometry">
            <mxPoint y="-6" as="offset" />
          </mxGeometry>
        </mxCell>
        <mxCell id="SNHWbEER7JOS9_rvcUcZ-43" value="" style="endArrow=none;dashed=1;html=1;rounded=0;entryX=0.5;entryY=1;entryDx=0;entryDy=0;dashPattern=12 12;" edge="1" parent="1" source="SNHWbEER7JOS9_rvcUcZ-36" target="SNHWbEER7JOS9_rvcUcZ-42">
          <mxGeometry width="50" height="50" relative="1" as="geometry">
            <mxPoint x="680" y="320" as="sourcePoint" />
            <mxPoint x="679.5" y="60" as="targetPoint" />
          </mxGeometry>
        </mxCell>
        <mxCell id="SNHWbEER7JOS9_rvcUcZ-42" value="" style="rounded=0;whiteSpace=wrap;html=1;" vertex="1" parent="1">
          <mxGeometry x="670" y="240" width="20" height="40" as="geometry" />
        </mxCell>
        <mxCell id="SNHWbEER7JOS9_rvcUcZ-44" value="" style="endArrow=classic;html=1;rounded=0;entryX=0;entryY=0;entryDx=0;entryDy=0;exitX=1.033;exitY=0.429;exitDx=0;exitDy=0;exitPerimeter=0;" edge="1" parent="1" source="SNHWbEER7JOS9_rvcUcZ-35" target="SNHWbEER7JOS9_rvcUcZ-42">
          <mxGeometry width="50" height="50" relative="1" as="geometry">
            <mxPoint x="370" y="240" as="sourcePoint" />
            <mxPoint x="669" y="241" as="targetPoint" />
          </mxGeometry>
        </mxCell>
        <mxCell id="SNHWbEER7JOS9_rvcUcZ-45" value="GetAllCheepCountAsync()" style="edgeLabel;html=1;align=center;verticalAlign=middle;resizable=0;points=[];" vertex="1" connectable="0" parent="SNHWbEER7JOS9_rvcUcZ-44">
          <mxGeometry x="0.0125" relative="1" as="geometry">
            <mxPoint y="-8" as="offset" />
          </mxGeometry>
        </mxCell>
        <mxCell id="SNHWbEER7JOS9_rvcUcZ-46" value="" style="endArrow=classic;html=1;rounded=0;strokeColor=default;dashed=1;entryX=1.067;entryY=0.571;entryDx=0;entryDy=0;entryPerimeter=0;exitX=0;exitY=1;exitDx=0;exitDy=0;" edge="1" parent="1" source="SNHWbEER7JOS9_rvcUcZ-42" target="SNHWbEER7JOS9_rvcUcZ-35">
          <mxGeometry width="50" height="50" relative="1" as="geometry">
            <mxPoint x="671" y="280" as="sourcePoint" />
            <mxPoint x="370" y="280" as="targetPoint" />
          </mxGeometry>
        </mxCell>
        <mxCell id="SNHWbEER7JOS9_rvcUcZ-47" value="Return int" style="edgeLabel;html=1;align=center;verticalAlign=middle;resizable=0;points=[];" vertex="1" connectable="0" parent="SNHWbEER7JOS9_rvcUcZ-46">
          <mxGeometry x="0.0167" y="-2" relative="1" as="geometry">
            <mxPoint y="-6" as="offset" />
          </mxGeometry>
        </mxCell>
      </root>
    </mxGraphModel>
  </diagram>
</mxfile>
